<svg xmlns="http://www.w3.org/2000/svg" viewBox="0 0 48 48" fill="none">
  <rect width="48" height="48" rx="10" fill="#fff"/>
  <path d="M24 34c5.5 0 10-4.5 10-10s-4.5-10-10-10c-2.8 0-5.3 1.2-7.1 3.1l2.8 2.8C20.7 18.5 22.3 18 24 18c3.9 0 7 3.1 7 7s-3.1 7-7 7c-1.7 0-3.3-.5-4.7-1.5l-2.8 2.8C18.7 32.8 21.2 34 24 34z" fill="#4285F4"/>
  <path d="M13.7 22.3l-2.8-2.8C9.2 21.3 8 23.8 8 26.5h4c0-1.6.6-3.2 1.7-4.2z" fill="#EA4335"/>
  <path d="M8 26.5c0 2.7 1.2 5.2 3.1 7l2.8-2.8c-1.1-1-1.7-2.6-1.7-4.2H8z" fill="#FBBC05"/>
  <path d="M24 34c2.8 0 5.3-1.2 7.1-3.1l-2.8-2.8c-1.4 1-3 1.5-4.7 1.5-1.7 0-3.3-.5-4.7-1.5l-2.8 2.8C18.7 32.8 21.2 34 24 34z" fill="#34A853"/>
</svg>
